<svg xmlns="http://www.w3.org/2000/svg" viewBox="0 0 32 32">
  <rect width="32" height="32" rx="8" fill="#0d1117"/>
  <path d="M16 6c-5.523 0-10 4.477-10 10 0 4.425 2.865 8.166 6.839 9.489.5.087.687-.214.687-.475 0-.236-.012-1.025-.012-1.862-2.513.462-3.163-.612-3.363-1.175-.113-.288-.6-1.175-1.025-1.413-.35-.187-.85-.65-.013-.663.788-.012 1.35.725 1.538 1.025.9 1.512 2.337 1.087 2.913.825.087-.65.35-1.088.637-1.338-2.225-.25-4.55-1.112-4.55-4.937 0-1.087.388-1.987 1.025-2.687-.1-.25-.45-1.275.1-2.65 0 0 .837-.263 2.75 1.025.8-.225 1.65-.338 2.5-.338s1.7.113 2.5.338c1.913-1.3 2.75-1.025 2.75-1.025.55 1.375.2 2.4.1 2.65.637.7 1.025 1.588 1.025 2.687 0 3.838-2.338 4.687-4.563 4.937.363.313.675.913.675 1.85 0 1.337-.012 2.412-.012 2.75 0 .262.187.575.687.475C23.137 24.162 26 20.412 26 16c0-5.523-4.477-10-10-10z" fill="#58a6ff"/>
</svg>
